<svg width="106" height="100" viewBox="0 0 106 100" fill="none" xmlns="http://www.w3.org/2000/svg">
<path d="M93.397 35.4264L104.479 24.3445C104.936 23.8883 105.151 23.2429 105.059 22.604C104.969 21.965 104.581 21.4054 104.015 21.0944L90.6928 13.7789C89.6995 13.2337 88.4521 13.5969 87.9061 14.5902C87.361 15.5843 87.7233 16.8318 88.7174 17.3769L99.643 23.376L90.1324 32.8858L55.9263 14.1028L65.4361 4.59302L75.0493 9.8722C76.0426 10.4174 77.2908 10.055 77.836 9.06089C78.3819 8.06758 78.0188 6.81933 77.0247 6.27418L66.0614 0.253421C65.2613 -0.18591 64.2672 -0.0440096 63.6227 0.601358L52.54 11.684L41.4573 0.601358C40.8119 -0.0440096 39.8178 -0.185109 39.0185 0.253421L1.06449 21.0944C0.498487 21.4054 0.111266 21.9642 0.0206741 22.604C-0.0707195 23.2429 0.144136 23.8883 0.601104 24.3445L11.683 35.4264L0.601104 46.5074C0.144136 46.9644 -0.0707195 47.609 0.0206741 48.2487C0.111266 48.8877 0.498487 49.4473 1.06449 49.7575L12.5336 56.0557V77.1067C12.5336 77.8563 12.9417 78.5457 13.5982 78.9065L51.5523 99.7467C51.8601 99.9158 52.2001 100 52.54 100C52.8799 100 53.2198 99.9158 53.5277 99.7467L91.4817 78.9065C92.1383 78.5457 92.5464 77.8563 92.5464 77.1067V56.0557L104.015 49.7583C104.581 49.4473 104.969 48.8877 105.059 48.2487C105.151 47.6098 104.936 46.9644 104.479 46.5082L93.397 35.4264ZM52.54 53.9248L18.8502 35.4256L52.54 16.9256L86.2298 35.4256L52.54 53.9248ZM39.6446 4.59302L49.1536 14.1028L14.9475 32.8858L5.43775 23.376L39.6446 4.59302ZM14.9491 37.9661L49.1552 56.7491L39.6446 66.2597L5.43775 47.4767L14.9491 37.9661ZM88.4417 75.8929L54.5923 94.4795V73.4998C54.5923 72.3662 53.6736 71.4475 52.54 71.4475C51.4064 71.4475 50.4876 72.3662 50.4876 73.4998V94.4795L16.6383 75.8929V58.3101L39.0185 70.5993C39.3288 70.7693 39.6687 70.8526 40.0054 70.8526C40.5369 70.8526 41.0629 70.6458 41.4573 70.2514L52.54 59.1687L63.6227 70.2514C64.0171 70.6466 64.543 70.8526 65.0745 70.8526C65.4112 70.8526 65.7512 70.7693 66.0614 70.5993L88.4417 58.3101V75.8929ZM65.4361 66.2597L55.9255 56.7483L90.1316 37.9661L99.643 47.4759L65.4361 66.2597Z" fill="black"/>
<path d="M83.0791 13.9921C83.6186 13.9921 84.1461 13.7725 84.5301 13.39C84.9117 13.0084 85.1314 12.4793 85.1314 11.9398C85.1314 11.3994 84.9117 10.8703 84.5301 10.4887C84.1485 10.1063 83.6186 9.88742 83.0791 9.88742C82.5371 9.88742 82.0096 10.1063 81.628 10.4887C81.244 10.8703 81.0267 11.3994 81.0267 11.9398C81.0267 12.4793 81.244 13.0084 81.628 13.39C82.0096 13.7725 82.5395 13.9921 83.0791 13.9921Z" fill="black"/>
<path d="M52.54 64.6338C52.0004 64.6338 51.4705 64.8527 51.0889 65.2351C50.7073 65.6183 50.4876 66.1458 50.4876 66.6862C50.4876 67.2273 50.7073 67.7548 51.0889 68.1388C51.4705 68.5205 52.0004 68.7385 52.54 68.7385C53.0795 68.7385 53.6094 68.5205 53.991 68.1388C54.3726 67.7548 54.5923 67.2273 54.5923 66.6862C54.5923 66.1458 54.3726 65.6183 53.991 65.2351C53.6094 64.8527 53.0795 64.6338 52.54 64.6338Z" fill="black"/>
</svg>
